HIERARCHY
ROOT pelvis
{
	OFFSET 0.003123 -0.351407 0.012037
	CHANNELS 6 Xposition Yposition Zposition Zrotation Yrotation Xrotation 
	JOINT left_hip
	{
		OFFSET 0.058189 -0.092763 -0.026001
		CHANNELS 3 Zrotation Yrotation Xrotation
		JOINT left_knee
		{
			OFFSET 0.054695 -0.378753 -0.009396
			CHANNELS 3 Zrotation Yrotation Xrotation
			JOINT left_ankle
			{
				OFFSET -0.043453 -0.403059 -0.031876
				CHANNELS 3 Zrotation Yrotation Xrotation
				JOINT left_foot
				{
					OFFSET 0.047257 -0.057997 0.118216
					CHANNELS 3 Zrotation Yrotation Xrotation
					End Site
					{
						OFFSET 0.000000 0.000000 0.000000
					}
				}
			}
		}
	}
	JOINT right_hip
	{
		OFFSET -0.063267 -0.103908 -0.021250
		CHANNELS 3 Zrotation Yrotation Xrotation
		JOINT right_knee
		{
			OFFSET -0.044210 -0.362380 -0.016824
			CHANNELS 3 Zrotation Yrotation Xrotation
			JOINT right_ankle
			{
				OFFSET 0.015417 -0.410728 -0.020192
				CHANNELS 3 Zrotation Yrotation Xrotation
				JOINT right_foot
				{
					OFFSET -0.038812 -0.058328 0.119049
					CHANNELS 3 Zrotation Yrotation Xrotation
					End Site
					{
						OFFSET 0.000000 0.000000 0.000000
					}
				}
			}
		}
	}
	JOINT spine_1
	{
		OFFSET -0.002763 0.109891 -0.027618
		CHANNELS 3 Zrotation Yrotation Xrotation
		JOINT spine_2
		{
			OFFSET 0.009448 0.131853 -0.005940
			CHANNELS 3 Zrotation Yrotation Xrotation
			JOINT spine_3
			{
				OFFSET -0.011330 0.052235 0.028447
				CHANNELS 3 Zrotation Yrotation Xrotation
				JOINT neck
				{
					OFFSET -0.012164 0.165167 -0.031615
					CHANNELS 3 Zrotation Yrotation Xrotation
					JOINT head
					{
						OFFSET 0.024783 0.160452 0.020737
						CHANNELS 3 Zrotation Yrotation Xrotation
						End Site
						{
							OFFSET 0.000000 0.000000 0.000000
						}
					}
				}
				JOINT left_collar
				{
					OFFSET 0.046364 0.084944 -0.007220
					CHANNELS 3 Zrotation Yrotation Xrotation
					JOINT left_shoulder
					{
						OFFSET 0.119239 0.057728 -0.015461
						CHANNELS 3 Zrotation Yrotation Xrotation
						JOINT left_elbow
						{
							OFFSET 0.254123 -0.072151 -0.042459
							CHANNELS 3 Zrotation Yrotation Xrotation
							JOINT left_wrist
							{
								OFFSET 0.251987 0.023221 -0.002472
								CHANNELS 3 Zrotation Yrotation Xrotation
								JOINT left_index_1
								{
									OFFSET 0.101902 -0.008688 0.019351
									CHANNELS 3 Zrotation Yrotation Xrotation
									JOINT left_index_2
									{
										OFFSET 0.030149 -0.011154 0.001151
										CHANNELS 3 Zrotation Yrotation Xrotation
										JOINT left_index_3
										{
											OFFSET 0.006504 -0.021577 -0.002433
											CHANNELS 3 Zrotation Yrotation Xrotation
											End Site
											{
												OFFSET 0.000000 0.000000 0.000000
											}
										}
									}
								}
								JOINT left_middle_1
								{
									OFFSET 0.109398 -0.006328 -0.003981
									CHANNELS 3 Zrotation Yrotation Xrotation
									JOINT left_middle_2
									{
										OFFSET 0.026472 -0.015218 -0.004641
										CHANNELS 3 Zrotation Yrotation Xrotation
										JOINT left_middle_3
										{
											OFFSET 0.005022 -0.023347 -0.001911
											CHANNELS 3 Zrotation Yrotation Xrotation
											End Site
											{
												OFFSET 0.000000 0.000000 0.000000
											}
										}
									}
								}
								JOINT left_pinky_1
								{
									OFFSET 0.084047 -0.014539 -0.043750
									CHANNELS 3 Zrotation Yrotation Xrotation
									JOINT left_pinky_2
									{
										OFFSET 0.012124 -0.014448 -0.005375
										CHANNELS 3 Zrotation Yrotation Xrotation
										JOINT left_pinky_3
										{
											OFFSET 0.003798 -0.018853 0.000167
											CHANNELS 3 Zrotation Yrotation Xrotation
											End Site
											{
												OFFSET 0.000000 0.000000 0.000000
											}
										}
									}
								}
								JOINT left_ring_1
								{
									OFFSET 0.097444 -0.009268 -0.027345
									CHANNELS 3 Zrotation Yrotation Xrotation
									JOINT left_ring_2
									{
										OFFSET 0.023561 -0.016057 -0.001895
										CHANNELS 3 Zrotation Yrotation Xrotation
										JOINT left_ring_3
										{
											OFFSET 0.004257 -0.023548 0.000814
											CHANNELS 3 Zrotation Yrotation Xrotation
											End Site
											{
												OFFSET 0.000000 0.000000 0.000000
											}
										}
									}
								}
								JOINT left_thumb_1
								{
									OFFSET 0.040636 -0.017977 0.025611
									CHANNELS 3 Zrotation Yrotation Xrotation
									JOINT left_thumb_2
									{
										OFFSET 0.021637 -0.017639 0.011623
										CHANNELS 3 Zrotation Yrotation Xrotation
										JOINT left_thumb_3
										{
											OFFSET 0.024002 -0.008356 0.006548
											CHANNELS 3 Zrotation Yrotation Xrotation
											End Site
											{
												OFFSET 0.000000 0.000000 0.000000
											}
										}
									}
								}
							}
						}
					}
				}
				JOINT right_collar
				{
					OFFSET -0.047695 0.084339 -0.013400
					CHANNELS 3 Zrotation Yrotation Xrotation
					JOINT right_shoulder
					{
						OFFSET -0.102578 0.053524 -0.012669
						CHANNELS 3 Zrotation Yrotation Xrotation
						JOINT right_elbow
						{
							OFFSET -0.271150 -0.036492 -0.026467
							CHANNELS 3 Zrotation Yrotation Xrotation
							JOINT right_wrist
							{
								OFFSET -0.249267 -0.004533 -0.015325
								CHANNELS 3 Zrotation Yrotation Xrotation
								JOINT right_index_1
								{
									OFFSET -0.099881 -0.011783 0.019600
									CHANNELS 3 Zrotation Yrotation Xrotation
									JOINT right_index_2
									{
										OFFSET -0.030148 -0.011154 0.001151
										CHANNELS 3 Zrotation Yrotation Xrotation
										JOINT right_index_3
										{
											OFFSET -0.006505 -0.021577 -0.002432
											CHANNELS 3 Zrotation Yrotation Xrotation
											End Site
											{
												OFFSET 0.000000 0.000000 0.000000
											}
										}
									}
								}
								JOINT right_middle_1
								{
									OFFSET -0.107376 -0.009422 -0.003734
									CHANNELS 3 Zrotation Yrotation Xrotation
									JOINT right_middle_2
									{
										OFFSET -0.026472 -0.015218 -0.004641
										CHANNELS 3 Zrotation Yrotation Xrotation
										JOINT right_middle_3
										{
											OFFSET -0.005022 -0.023347 -0.001911
											CHANNELS 3 Zrotation Yrotation Xrotation
											End Site
											{
												OFFSET 0.000000 0.000000 0.000000
											}
										}
									}
								}
								JOINT right_pinky_1
								{
									OFFSET -0.082027 -0.017634 -0.043503
									CHANNELS 3 Zrotation Yrotation Xrotation
									JOINT right_pinky_2
									{
										OFFSET -0.012123 -0.014448 -0.005374
										CHANNELS 3 Zrotation Yrotation Xrotation
										JOINT right_pinky_3
										{
											OFFSET -0.003798 -0.018852 0.000167
											CHANNELS 3 Zrotation Yrotation Xrotation
											End Site
											{
												OFFSET 0.000000 0.000000 0.000000
											}
										}
									}
								}
								JOINT right_ring_1
								{
									OFFSET -0.095423 -0.012362 -0.027099
									CHANNELS 3 Zrotation Yrotation Xrotation
									JOINT right_ring_2
									{
										OFFSET -0.023561 -0.016057 -0.001895
										CHANNELS 3 Zrotation Yrotation Xrotation
										JOINT right_ring_3
										{
											OFFSET -0.004257 -0.023548 0.000816
											CHANNELS 3 Zrotation Yrotation Xrotation
											End Site
											{
												OFFSET 0.000000 0.000000 0.000000
											}
										}
									}
								}
								JOINT right_thumb_1
								{
									OFFSET -0.038613 -0.021074 0.025861
									CHANNELS 3 Zrotation Yrotation Xrotation
									JOINT right_thumb_2
									{
										OFFSET -0.021636 -0.017639 0.011623
										CHANNELS 3 Zrotation Yrotation Xrotation
										JOINT right_thumb_3
										{
											OFFSET -0.024004 -0.008353 0.006547
											CHANNELS 3 Zrotation Yrotation Xrotation
											End Site
											{
												OFFSET 0.000000 0.000000 0.000000
											}
										}
									}
								}
							}
						}
					}
				}
			}
		}
	}
}
MOTION
Frames: 7
Frame Time: 0.050000
-0.462608 0.987518 -0.074646 157.526427 85.708804 148.577137 -7.168411 -0.844927 14.723268 0.442961 -1.656229 -4.948793 12.005612 16.040286 29.017531 0.000000 0.000000 0.000000 -1.232644 -1.457020 1.126133 -5.609532 -1.821366 12.540608 31.644396 15.831671 15.135023 0.000000 0.000000 0.000000 2.350393 -0.291933 10.749831 -17.579176 0.495056 -12.619036 21.965938 31.989722 22.597515 3.028317 -0.800973 -0.457647 0.000000 0.000000 0.000000 -13.108077 -24.635411 -22.169553 -43.245340 29.252847 -14.178515 -25.619243 -19.079030 1.704403 8.310650 -1.547367 27.226482 -22.681512 6.660016 -0.670931 14.875017 5.028080 15.248433 0.000000 0.000000 0.000000 -16.849300 -3.463881 -5.178650 -13.796837 8.654680 5.185085 0.000000 0.000000 0.000000 13.571164 -15.331406 -8.055754 -39.943615 3.087743 -29.605429 0.000000 0.000000 0.000000 -10.331450 -7.458278 -4.361267 -29.905425 11.841739 -4.601491 0.000000 0.000000 0.000000 10.015458 19.282387 16.004638 -7.168599 -10.759223 -1.120910 0.000000 0.000000 0.000000 7.997236 -15.636723 6.677477 45.513812 25.534104 20.672760 -13.826046 60.027858 2.233688 -4.912452 16.304770 -21.299588 167.875612 -36.828961 -154.499425 56.834547 -12.458263 -7.449290 0.000000 0.000000 0.000000 114.599258 -4.387555 -1.772957 -55.692769 -30.083931 -38.956450 0.000000 0.000000 0.000000 110.426134 55.232150 -4.429764 -51.636650 3.044069 25.719496 0.000000 0.000000 0.000000 118.238463 32.301525 24.615029 -65.688256 -7.863767 6.222435 0.000000 0.000000 0.000000 59.491200 58.566160 69.592050 -113.288074 -44.747031 167.018371 0.000000 0.000000 0.000000 
-0.460724 0.988163 -0.093124 155.059312 85.070455 146.221226 -8.701941 -0.675410 15.333707 1.604635 -1.507221 -5.974367 14.154348 16.620930 31.173098 0.000000 0.000000 0.000000 -2.798039 -1.932182 2.790607 -2.612068 -2.292120 10.678491 25.317855 14.459021 12.400699 0.000000 0.000000 0.000000 2.399603 -0.309735 11.259665 -13.474323 0.764119 -11.935062 15.268211 32.050142 20.401681 5.486687 -0.091587 -2.261241 0.000000 0.000000 0.000000 -13.862442 -24.869092 -19.797485 -44.051860 27.474298 -14.302899 -23.139012 -19.357531 1.653459 6.339863 -1.216387 23.401529 -18.395744 4.767636 -0.010279 10.418485 1.658680 7.297828 0.000000 0.000000 0.000000 -17.066775 2.601885 -3.168787 -4.961480 1.860058 -1.892204 0.000000 0.000000 0.000000 8.992445 -5.798559 -4.687088 -45.754099 13.066203 -14.984490 0.000000 0.000000 0.000000 -11.349558 -0.620182 -2.464382 -19.895862 6.325857 -3.205016 0.000000 0.000000 0.000000 20.018299 19.598982 16.424430 -12.365936 -11.770846 0.952462 0.000000 0.000000 0.000000 8.156251 -16.825934 3.819233 45.908071 21.395908 18.725141 -1.040570 66.334238 11.114309 -8.280063 11.164148 -19.245981 52.910242 -32.065957 -15.023823 69.688751 -4.412828 7.218201 0.000000 0.000000 0.000000 79.459429 -13.146146 -1.071096 6.534415 0.249502 -28.413323 0.000000 0.000000 0.000000 51.845472 50.666209 -30.356511 3.382356 -6.877838 20.786869 0.000000 0.000000 0.000000 77.469778 24.941550 9.986264 9.285929 4.453592 -11.580435 0.000000 0.000000 0.000000 -1.747801 -12.469967 5.762472 -65.805368 10.681649 107.923635 0.000000 0.000000 0.000000 
-0.464493 0.990097 -0.095764 148.902514 84.703413 141.600987 -7.217129 -0.593121 13.731355 -0.390512 -2.243480 -6.827211 15.688403 17.069512 33.609505 0.000000 0.000000 0.000000 -2.474793 -1.824006 -0.821078 -4.882821 -2.133690 12.833032 25.945802 14.275379 13.965750 0.000000 0.000000 0.000000 1.360529 -0.171730 10.122869 -17.048728 0.583612 -14.643396 19.850056 32.023492 25.304713 5.165698 0.311624 -3.770697 0.000000 0.000000 0.000000 -11.620306 -26.933174 -18.287779 -49.817561 25.128743 -18.693183 -18.822320 -20.697232 1.095973 9.959610 -4.125035 22.240638 -16.927651 7.758913 0.903573 20.664740 -2.315810 3.825142 0.000000 0.000000 0.000000 -16.258377 0.045327 -3.960274 3.855784 -0.133151 1.057400 0.000000 0.000000 0.000000 15.452538 -18.548121 -9.974029 -16.901706 5.211251 -16.597473 0.000000 0.000000 0.000000 -8.256882 -2.570434 -2.725069 -13.064281 2.933733 -9.196029 0.000000 0.000000 0.000000 20.021585 22.578271 20.050517 -14.528343 -14.387494 1.218664 0.000000 0.000000 0.000000 10.112540 -18.259721 6.121092 44.083123 24.227463 18.663735 -4.495384 70.021257 10.516628 -8.914663 5.867329 -21.509091 64.279579 -37.153842 -21.991889 65.378299 -5.072616 8.763030 0.000000 0.000000 0.000000 76.104613 -8.094829 1.096280 10.577492 1.965185 -26.874958 0.000000 0.000000 0.000000 51.180018 43.027663 -25.555210 -0.604104 -3.419209 11.352829 0.000000 0.000000 0.000000 75.810272 21.444664 9.987771 3.072907 6.652046 -20.627800 0.000000 0.000000 0.000000 -3.788362 -54.761949 6.578356 -112.995171 1.869871 -57.548170 0.000000 0.000000 0.000000 
-0.462608 0.991386 -0.093124 154.877060 83.979049 146.873306 -6.570432 -0.871988 14.195936 -1.478152 -2.423109 -6.001370 14.370440 16.779973 31.077952 0.000000 0.000000 0.000000 -2.033716 -1.744658 -1.081040 -5.078505 -2.778262 14.681980 25.126920 13.879149 14.776983 0.000000 0.000000 0.000000 1.378199 -0.153561 10.582234 -16.616969 0.424396 -11.534517 16.964373 29.689685 21.576893 4.536721 -0.289415 -1.574849 0.000000 0.000000 0.000000 -12.234003 -24.198285 -16.888669 -48.114494 25.841155 -17.565212 -21.544808 -22.588152 1.961081 8.583146 -4.660081 23.948426 -14.167428 7.313219 1.171332 27.857052 -4.322230 0.695971 0.000000 0.000000 0.000000 -8.054142 -2.646106 -3.019448 6.970553 0.662667 6.347128 0.000000 0.000000 0.000000 30.800701 -17.903822 -9.321529 -23.467134 11.613941 -0.060540 0.000000 0.000000 0.000000 4.769941 -6.660264 -3.512162 -10.943067 5.741437 2.119030 0.000000 0.000000 0.000000 13.655927 22.067391 19.020350 -10.930258 -11.862557 0.290316 0.000000 0.000000 0.000000 9.739707 -15.311434 6.116288 43.439590 21.024440 15.999809 3.789824 74.381667 17.109714 -6.054832 5.582993 -17.465380 34.744898 -34.128892 -5.125629 72.385883 -3.471549 4.504099 0.000000 0.000000 0.000000 50.679919 -6.717414 -0.136356 45.888707 13.970111 -20.659484 0.000000 0.000000 0.000000 5.382082 32.681225 -41.795590 29.077973 4.229619 -5.272423 0.000000 0.000000 0.000000 46.943419 19.691445 -0.027231 23.820168 23.857218 -31.244436 0.000000 0.000000 0.000000 -27.005524 -49.469121 15.767183 113.029501 84.536903 4.670500 0.000000 0.000000 0.000000 
-0.462608 0.993965 -0.090485 152.349809 84.038635 144.445885 -6.159304 -0.902869 14.016965 -2.260858 -2.441519 -4.945158 11.254311 16.121393 27.518471 0.000000 0.000000 0.000000 -2.255000 -1.787599 -1.234166 -4.094812 -2.894691 14.173253 22.560748 12.968599 15.367879 0.000000 0.000000 0.000000 0.224725 0.024495 11.966146 -15.819200 0.583788 -12.741612 16.990524 29.479688 21.295571 4.411214 -0.746441 -0.295809 0.000000 0.000000 0.000000 -13.226590 -25.619709 -16.764573 -45.077359 25.533594 -15.181161 -21.763902 -21.011509 1.843359 5.002923 -3.527586 24.524581 -14.300722 4.181259 0.288197 21.174436 -3.350238 1.141072 0.000000 0.000000 0.000000 -9.069809 -5.720732 -4.567714 13.566052 -2.460818 -1.207365 0.000000 0.000000 0.000000 31.894807 -16.798934 -8.372947 -14.388058 3.507809 -7.821520 0.000000 0.000000 0.000000 2.208130 -8.781461 -4.688430 -1.593054 2.915775 1.433691 0.000000 0.000000 0.000000 14.288231 18.396694 15.180200 -10.310472 -9.463936 0.710374 0.000000 0.000000 0.000000 10.142243 -16.226205 5.328663 46.660509 20.313124 17.237765 -2.018648 75.185428 12.033278 -6.762328 7.025333 -18.929609 35.988280 -40.899675 -7.654940 73.371012 -6.385220 6.038220 0.000000 0.000000 0.000000 59.472322 -13.369329 -0.367835 46.208766 8.041956 -14.428158 0.000000 0.000000 0.000000 23.991595 39.555821 -39.518460 20.248900 -0.459151 1.533565 0.000000 0.000000 0.000000 61.552317 16.162083 4.580139 27.898752 21.904515 -29.154730 0.000000 0.000000 0.000000 -18.666420 -43.969386 4.756091 -141.983501 44.199307 15.082342 0.000000 0.000000 0.000000 
-0.462608 0.993965 -0.093124 151.466050 84.766453 142.352635 -6.124911 -1.285185 15.716869 -2.619530 -2.441159 -5.100517 11.191402 16.024795 25.221697 0.000000 0.000000 0.000000 -1.702985 -1.577126 -0.156308 -4.259760 -2.919085 14.465876 22.598868 13.170222 15.730040 0.000000 0.000000 0.000000 -0.272695 0.104213 12.630290 -13.488932 0.549356 -10.039806 13.329659 29.099934 18.719796 4.713319 -0.829520 0.084206 0.000000 0.000000 0.000000 -13.776901 -23.376913 -15.767395 -45.016280 23.301997 -14.445698 -21.097276 -20.191837 1.880764 6.437559 -3.476397 23.697713 -15.716331 6.083663 0.647025 23.612357 -3.924317 0.824238 0.000000 0.000000 0.000000 -11.003695 -3.731027 -4.071088 13.092523 -2.520622 -1.894862 0.000000 0.000000 0.000000 18.841506 -18.065556 -9.842318 1.631926 1.570684 -7.316639 0.000000 0.000000 0.000000 -6.524087 -5.534000 -3.683711 9.243928 0.559908 0.768445 0.000000 0.000000 0.000000 11.682745 16.868713 13.685316 -8.175517 -3.506913 1.588971 0.000000 0.000000 0.000000 9.167279 -14.467531 4.530059 47.820092 19.115662 16.627338 8.615513 76.407109 20.273830 -7.040136 5.592744 -18.845620 35.515026 -28.071066 -3.768479 69.194732 -5.175809 7.281032 0.000000 0.000000 0.000000 55.555426 -5.573176 -0.636430 29.758006 10.777213 -24.207511 0.000000 0.000000 0.000000 16.931285 37.403276 -40.641927 12.493242 -2.666880 5.289314 0.000000 0.000000 0.000000 52.454496 22.550177 0.942014 23.741783 14.743777 -19.743819 0.000000 0.000000 0.000000 -7.053793 -34.570318 7.043602 -51.868244 26.126444 -76.749294 0.000000 0.000000 0.000000 
-0.462608 0.993965 -0.095764 145.074494 84.805145 136.236652 -6.695297 -1.028492 15.427635 -2.124761 -2.210623 -4.630231 9.525344 15.337016 23.621161 0.000000 0.000000 0.000000 -1.888110 -1.625848 -0.616613 -5.330929 -2.465089 14.392418 23.763084 13.637296 15.691198 0.000000 0.000000 0.000000 0.015738 0.065723 12.111887 -16.098671 0.753188 -12.339041 16.266808 27.813564 21.900694 4.594819 -0.585719 -0.534640 0.000000 0.000000 0.000000 -14.129212 -25.163142 -16.408408 -44.832303 24.709715 -14.276668 -20.591663 -20.207444 1.767898 5.532339 -5.026495 22.221722 -14.258327 5.720571 0.864634 18.993985 -3.166401 0.602434 0.000000 0.000000 0.000000 -9.974433 -4.034039 -3.915810 4.070641 -0.611964 -1.519608 0.000000 0.000000 0.000000 20.387397 -18.892150 -10.658187 -10.714702 3.938292 -6.627068 0.000000 0.000000 0.000000 -5.356458 -6.045207 -3.759318 -0.049110 2.185120 1.751989 0.000000 0.000000 0.000000 13.973350 18.569475 15.413641 -15.751900 -8.726158 2.944045 0.000000 0.000000 0.000000 7.898131 -14.455229 4.251176 49.526765 19.026766 18.500558 4.932007 75.443872 17.054345 -6.575507 9.092068 -19.385962 26.870651 -28.409128 -1.937712 64.374941 0.313565 2.199833 0.000000 0.000000 0.000000 49.220560 -1.729139 -0.405181 27.271375 9.820713 -21.746398 0.000000 0.000000 0.000000 11.554738 35.261143 -40.205007 10.509979 -2.091119 4.510248 0.000000 0.000000 0.000000 44.971552 22.521413 -0.906756 10.202917 11.072156 -20.826057 0.000000 0.000000 0.000000 -5.888304 -24.666832 5.712154 -53.841816 12.853811 0.599193 0.000000 0.000000 0.000000 
